<svg id="Capa_1" data-name="Capa 1" xmlns="http://www.w3.org/2000/svg" viewBox="0 0 55.79 69.87"><defs><style>.cls-1{fill:#35db3a;}.cls-2{fill:#73f476;}.cls-3{fill:#0bf426;}.cls-4{fill:#fff;}.cls-5{fill:#198419;}.cls-6{fill:#43aa13;}.cls-7{fill:#50aa26;}.cls-8{fill:#48b515;}.cls-9{fill:#5dc626;}</style></defs><title>auditoria-VERDE definitivo</title><path class="cls-1" d="M19.32,63.52l-17.4.1A3,3,0,0,1,0,61.72V3.22a3.48,3.48,0,0,1,.4-2,3.66,3.66,0,0,1,3-1.2h34.3V15l13.4-.1v46.8a2.93,2.93,0,0,1-1.9,2Z" transform="translate(0)"/><polygon class="cls-1" points="37.73 13.41 39.33 15.02 37.73 15.02 37.73 13.41"/><path class="cls-2" d="M63.6,20.82" transform="translate(0)"/><path class="cls-3" d="M12.2,69.52" transform="translate(0)"/><rect class="cls-4" x="5.36" y="31.56" width="31.48" height="0.59"/><path class="cls-4" d="M54.8,68.61l-.4.4a3,3,0,0,1-4.24,0l-.06-.06h0l-8.7-9.1a3.15,3.15,0,0,1,.1-4.4l.4-.4a3,3,0,0,1,4.25,0l.05.06h0l8.7,9.2A2.93,2.93,0,0,1,55,68.47.67.67,0,0,1,54.8,68.61Z" transform="translate(0)"/><path class="cls-5" d="M61.3,16.72" transform="translate(0)"/><path class="cls-6" d="M37.72,0V13.82a1.76,1.76,0,0,0,1.2,1.2l12.2-.1C46.72,9.9,42.22,4.9,37.72,0Z" transform="translate(0)"/><rect class="cls-7" x="27.31" y="11.84" width="8.4" height="17.97"/><rect class="cls-8" x="6.13" y="6.57" width="8.87" height="23.23"/><rect class="cls-9" x="16.9" y="17.4" width="8.4" height="12.4"/><rect class="cls-4" x="5.21" y="55.94" width="15.47" height="0.83"/><rect class="cls-4" x="5.21" y="50.04" width="11.75" height="0.77"/><rect class="cls-4" x="5.21" y="44.13" width="11.75" height="0.77"/><rect class="cls-4" x="5.21" y="37.83" width="15.47" height="0.83"/><path class="cls-4" d="M47.37,47.4a12.46,12.46,0,1,1,0-.17ZM34.93,37.17A10.35,10.35,0,1,0,45.11,47.69V47.5A10.26,10.26,0,0,0,34.93,37.15h0Z" transform="translate(0)"/><path class="cls-4" d="M26.91,46.53c-.41-.12-.32-4,2.83-6.26,3.43-2.43,7.09-1.51,7.1-1.06s-3.91.25-6.52,2.55S27.25,46.62,26.91,46.53Z" transform="translate(0)"/></svg>