<svg id="Capa_1" data-name="Capa 1" xmlns="http://www.w3.org/2000/svg" viewBox="0 0 63.99 78.64"><defs><style>.cls-1{fill:#0fa7e1;}.cls-2{fill:#fff;}</style></defs><title>gerencia corb blanca-</title><path id="Trazado_1" data-name="Trazado 1" class="cls-1" d="M22.41,43.27l-3.07,3a7.39,7.39,0,0,1-2.14,1.44l-13.37,6S1.3,55.16,1.45,57.09L.11,74.33A3.25,3.25,0,0,0,2,78.19c2.67,1,60.34,0,60.34,0s1.48-.14,1.63-2.37L63.1,57.68s-.3-3.26-2.53-4c-1.51-.5-9.25-4.07-12.79-5.71a11.1,11.1,0,0,1-3.15-2.2L42,43.12s-1-.37-1,1c0,0-1.66,17.06-8.66,30.07a.44.44,0,0,1-.61.16.41.41,0,0,1-.16-.16c-1.48-2-6.25-10-8.55-29.38C23.08,44.83,23,42.82,22.41,43.27Z" transform="translate(0 0)"/><path id="Trazado_2" data-name="Trazado 2" class="cls-2" d="M28,60.81S30.77,71,31.68,72.75a.19.19,0,0,0,.25.08.14.14,0,0,0,.07-.08,69.33,69.33,0,0,0,3.9-11.93h0S34.61,53,34,52a.21.21,0,0,1,0-.19,10.31,10.31,0,0,0,1.57-3.61s.73-3-1.41-3.69a.17.17,0,0,0-.14,0,3.37,3.37,0,0,1-1.68,1H31.7a3.7,3.7,0,0,1-1.69-1,.19.19,0,0,0-.18,0c-.44.13-2,.81-1.52,3.38h0a22.54,22.54,0,0,0,1.6,3.79.15.15,0,0,1,0,.13C29.67,52.59,27.7,59.68,28,60.81Z" transform="translate(0 0)"/><path id="Trazado_3" data-name="Trazado 3" class="cls-1" d="M21.07,22.07h0a.49.49,0,0,0-.14-.34,2.21,2.21,0,0,0-3.1-.26,3.19,3.19,0,0,0-.26.26.58.58,0,0,0-.12.25c-.13,1.12-.87,8.53,2.13,9.72a.47.47,0,0,1,.3.4c.07,1.44.89,7.62,9.67,10.37h.14a7.69,7.69,0,0,0,2.38.29,7.92,7.92,0,0,0,2-.29h.11c.75-.18,9.08-2.37,9.52-10.38a.48.48,0,0,1,.41-.43c.84-.11,2.69-1.22,2.46-9.07h0c0-.28-.45-3.16-3.84-.86a.48.48,0,0,0-.2.38h0a.47.47,0,0,0,.47.46.44.44,0,0,0,.36-.19c.37-.5.76-.84,1-.36,0,0,1.31,1.73-.37,7.18a.44.44,0,0,1-.31.31c-.61.19-2.14.81-1.75,2.08a.28.28,0,0,1,0,.18A10.64,10.64,0,0,1,34.17,41h0a5.72,5.72,0,0,1-3.72.14h0a10.9,10.9,0,0,1-8.52-9.44.28.28,0,0,1,0-.13c.06-.28.16-1.41-1.59-2a.46.46,0,0,1-.3-.29c-.37-1.17-1.69-6.31-.53-7.29a.43.43,0,0,1,.35,0,1.4,1.4,0,0,1,.53.35.46.46,0,0,0,.63-.16A.34.34,0,0,0,21.07,22.07Z" transform="translate(0 0)"/><path id="Trazado_4" data-name="Trazado 4" class="cls-1" d="M17.35,13.23a13.26,13.26,0,0,1,5-9.67,1.14,1.14,0,0,1,1.6.21,1.11,1.11,0,0,1,.22.51c.6,3.58,2,11.48,2.69,11.94,0,0,1.63,3-1-13.63a.06.06,0,0,0,0-.06,1.26,1.26,0,0,1,.8-1.47,2.86,2.86,0,0,0,.54-.3,13.42,13.42,0,0,1,10,.44,1.1,1.1,0,0,1,.65,1.12c-.32,2.8-1,12.34-1.11,13.37v.19c.08.71.64,4.42,2.85-11.56a1.14,1.14,0,0,1,1.29-.93,1.33,1.33,0,0,1,.43.17c1.84,1.15,4.82,4,5.37,10.28a1,1,0,0,0,.17.5,1.9,1.9,0,0,0,1,.72,1.13,1.13,0,0,1,.75,1v3.35a.67.67,0,0,1,0,.2c-.06.32-.29,1.23-1,1.23h-.29s-3,0-3.27,1c0,0-.89,2.07-8.59,2.52H27.16s-4.46-.14-6.58-1.84a.69.69,0,0,1-.17-.17,4.54,4.54,0,0,0-3.88-1.57,1.08,1.08,0,0,1-.67-.18,1.37,1.37,0,0,1-.59-1.09V15.63a.82.82,0,0,1,.84-.8h.06a1.14,1.14,0,0,0,1.09-.7,1.71,1.71,0,0,0,.1-.87Z" transform="translate(0 0)"/><path id="Trazado_5" data-name="Trazado 5" class="cls-1" d="M44.4,39.26" transform="translate(0 0)"/></svg>