<svg id="Capa_1" data-name="Capa 1" xmlns="http://www.w3.org/2000/svg" viewBox="0 0 67.08 77.94"><defs><style>.cls-1{fill:#f85927;}.cls-2{fill:#0fa7e1;}.cls-3{fill:#fff;}</style></defs><title>supervision definitivo-</title><path id="Trazado_1" data-name="Trazado 1" class="cls-1" d="M-7.83,48.24" transform="translate(-1.24 -0.72)"/><path id="Trazado_4" data-name="Trazado 4" class="cls-1" d="M48,39.24" transform="translate(-1.24 -0.72)"/><path id="Trazado_3" data-name="Trazado 3" class="cls-1" d="M23.78,22.79h0a.49.49,0,0,0-.14-.34,2.21,2.21,0,0,0-3.1-.26,3.19,3.19,0,0,0-.26.26.58.58,0,0,0-.12.25c-.13,1.12-.87,8.53,2.13,9.72a.47.47,0,0,1,.3.4c.07,1.44.89,7.62,9.67,10.37a.33.33,0,0,0,.14,0,7.69,7.69,0,0,0,2.38.29,7.92,7.92,0,0,0,2-.29h.11c.75-.18,9.08-2.37,9.52-10.38a.48.48,0,0,1,.41-.43c.84-.11,2.69-1.22,2.46-9.07h0c0-.28-.45-3.16-3.84-.86a.48.48,0,0,0-.2.38h0a.46.46,0,0,0,.46.46.44.44,0,0,0,.37-.19c.37-.5.76-.84,1-.36,0,0,1.31,1.73-.37,7.18a.46.46,0,0,1-.31.31c-.61.19-2.14.81-1.75,2.08a.28.28,0,0,1,0,.18,10.65,10.65,0,0,1-7.76,9.26h0a5.72,5.72,0,0,1-3.72.14h0a10.9,10.9,0,0,1-8.52-9.44.28.28,0,0,1,0-.13c.06-.28.16-1.41-1.59-2a.46.46,0,0,1-.3-.29c-.37-1.17-1.69-6.31-.53-7.29a.43.43,0,0,1,.35,0,1.49,1.49,0,0,1,.53.35.46.46,0,0,0,.63-.16A.58.58,0,0,0,23.78,22.79Z" transform="translate(-1.24 -0.72)"/><path id="Trazado_4-2" data-name="Trazado 4" class="cls-1" d="M20.06,14a13.22,13.22,0,0,1,5-9.67,1.14,1.14,0,0,1,1.6.21,1.11,1.11,0,0,1,.22.51c.6,3.58,2,11.48,2.69,11.94,0,0,1.63,3-1-13.63a.06.06,0,0,0,0-.06,1.26,1.26,0,0,1,.8-1.47,2.86,2.86,0,0,0,.54-.3,13.42,13.42,0,0,1,10,.44A1.1,1.1,0,0,1,40.56,3c-.32,2.8-1,12.34-1.11,13.37v.19c.08.71.64,4.42,2.85-11.56a1.13,1.13,0,0,1,1.28-.93,1.3,1.3,0,0,1,.44.17c1.84,1.15,4.82,4,5.37,10.28a1,1,0,0,0,.17.5,1.9,1.9,0,0,0,1,.72,1.13,1.13,0,0,1,.75,1v3.35a.67.67,0,0,1,0,.2c-.06.32-.29,1.23-1,1.23H50s-3,0-3.27,1c0,0-.89,2.07-8.59,2.52H29.87s-4.46-.14-6.58-1.84a.69.69,0,0,1-.17-.17,4.55,4.55,0,0,0-3.88-1.57,1.08,1.08,0,0,1-.67-.18A1.35,1.35,0,0,1,18,20.23V16.35a.82.82,0,0,1,.84-.8h.06a1.15,1.15,0,0,0,1.09-.7,1.71,1.71,0,0,0,.1-.87Z" transform="translate(-1.24 -0.72)"/><path id="Trazado_5" data-name="Trazado 5" class="cls-2" d="M-9.84,38" transform="translate(-1.24 -0.72)"/><path class="cls-1" d="M47.36,51.32" transform="translate(-1.24 -0.72)"/><path class="cls-1" d="M66.67,78.63c.35,0,.71,0,1.07,0l.58,0L66.49,60.93c0-2.47-2.53-4.25-2.53-4.25L50.42,49.59h0l-.6-.31h0l-.66-.33h0l-.13,0a2,2,0,0,1-.2.3,1.52,1.52,0,0,1,.91,2l12.62,6.31s2.42,1.62,2.38,3.84l1.85,17.24Z" transform="translate(-1.24 -0.72)"/><path class="cls-1" d="M54.88,59.48" transform="translate(-1.24 -0.72)"/><path class="cls-1" d="M22.2,51.32" transform="translate(-1.24 -0.72)"/><path class="cls-1" d="M20.76,49.2a2,2,0,0,1-.2-.3l-.13,0h0l-.66.33h0l-.6.31h0L5.6,56.68S3,58.46,3.07,60.93L1.24,78.61c.55,0,1.28,0,1.76,0L4.85,61.39c0-2.22,2.38-3.84,2.38-3.84l12.62-6.31A1.52,1.52,0,0,1,20.76,49.2Z" transform="translate(-1.24 -0.72)"/><path class="cls-1" d="M14.68,59.48" transform="translate(-1.24 -0.72)"/><path class="cls-1" d="M34.65,64" transform="translate(-1.24 -0.72)"/><path class="cls-1" d="M38.71,68.41a34.82,34.82,0,0,1-1.78,3.89l-2.47-.59-.14,0-.4-.1h-.07l-.06,0-.33-.08h0l-.26-.07L31,68.08V64.14h8.59l.09,0Z" transform="translate(-1.24 -0.72)"/><path class="cls-1" d="M34.28,78.63h.09c.27,0,.54,0,.8,0L34.63,64s-2.68-5.63-5.87-19l-5.87,2.75a2.87,2.87,0,0,1-.35.2c-.26.12-.61.32-.94.45l-.17.09-.15.08-.78.36-.09,0c-.18.08-.4.21-.63.32l-5.1,15.39v14h.23l1.08,0,1.07,0h.16l1.08,0,1,0h0a13.44,13.44,0,0,1,3,0l.67,0c.36,0,.72,0,1.07,0h.23c.35,0,.71,0,1.07,0a4.5,4.5,0,0,1,1.46.05l.26,0,1.08,0c.36,0,.72,0,1.07,0h.23c.35,0,.71,0,1.07,0s.72,0,1.08,0h.46l1.08,0,1.07,0Z" transform="translate(-1.24 -0.72)"/><path class="cls-1" d="M85.3,55.28" transform="translate(-1.24 -0.72)"/><path class="cls-3" d="M23,78.6h.09V67.94L24.29,47l-2.12,1-1.77,20V78.54a9.41,9.41,0,0,1,1.91.08Z" transform="translate(-1.24 -0.72)"/><path class="cls-3" d="M117,67.82" transform="translate(-1.24 -0.72)"/><rect class="cls-3" x="13.41" y="71.72" width="20.71" height="2.59"/><path class="cls-1" d="M49.75,49.23c-.23-.11-.45-.24-.63-.32l-.09,0-.78-.36-.15-.08-.17-.09c-.33-.13-.68-.33-.94-.45a2.87,2.87,0,0,1-.35-.2l-5.87-2.75C37.58,58.34,34.9,64,34.9,64l-.54,14.66h0l1.08,0,1.07,0h.15q.4,0,.81,0,.59,0,1.17,0l.42,0,.23,0,.18,0,1.08,0,1.07,0,.3,0,.29,0,.31,0a17.53,17.53,0,0,1,2,0h.19l1.08,0,1.07,0h.3l.27,0c.11,0,.62,0,1,0a3.61,3.61,0,0,1,.7,0h.1a9.61,9.61,0,0,1,1.24,0,4.88,4.88,0,0,1,1,0h.06a6.76,6.76,0,0,1,1.41,0l.84,0,1,0v-14Z" transform="translate(-1.24 -0.72)"/><path class="cls-3" d="M46.46,78.62h.76l.27,0c.11,0,.62,0,1,0a4.16,4.16,0,0,1,.63,0V68.07L47.36,48l-2.12-1,1.22,20.92Z" transform="translate(-1.24 -0.72)"/><rect class="cls-3" x="32.93" y="71.72" width="20.71" height="2.59"/></svg>