<svg id="Capa_1" data-name="Capa 1" xmlns="http://www.w3.org/2000/svg" xmlns:xlink="http://www.w3.org/1999/xlink" viewBox="0 0 74.71 73.4"><defs><style>.cls-1,.cls-2{fill:#10284a;}.cls-1,.cls-6{stroke:#000;}.cls-1,.cls-2,.cls-3,.cls-4,.cls-6,.cls-7{stroke-miterlimit:10;}.cls-2{stroke:#10284a;}.cls-3,.cls-4,.cls-6,.cls-8{fill:#fff;}.cls-3,.cls-7{stroke:#fff;}.cls-4{stroke:#1d1d1b;}.cls-5,.cls-7{fill:#f40f0f;}.cls-9{fill:#f29999;}.cls-10{fill:url(#Degradado_sin_nombre);}.cls-11{fill:url(#Degradado_sin_nombre-2);}.cls-12{fill:url(#Degradado_sin_nombre-3);}.cls-13{fill:url(#Degradado_sin_nombre-4);}.cls-14{fill:url(#Degradado_sin_nombre-5);}.cls-15{fill:url(#Degradado_sin_nombre-6);}</style><linearGradient id="Degradado_sin_nombre" x1="520.39" y1="86.79" x2="520.39" y2="86.79" gradientUnits="userSpaceOnUse"><stop offset="0" stop-color="#fff"/><stop offset="1"/></linearGradient><linearGradient id="Degradado_sin_nombre-2" x1="334.29" y1="60.43" x2="334.29" y2="60.43" xlink:href="#Degradado_sin_nombre"/><linearGradient id="Degradado_sin_nombre-3" x1="469.93" y1="165" x2="469.93" y2="165" xlink:href="#Degradado_sin_nombre"/><linearGradient id="Degradado_sin_nombre-4" x1="44.05" y1="62.42" x2="44.05" y2="62.42" xlink:href="#Degradado_sin_nombre"/><linearGradient id="Degradado_sin_nombre-5" x1="52.61" y1="68.8" x2="52.61" y2="68.8" xlink:href="#Degradado_sin_nombre"/><linearGradient id="Degradado_sin_nombre-6" x1="48.89" y1="66.35" x2="48.89" y2="66.35" xlink:href="#Degradado_sin_nombre"/></defs><title>tecnical rojo definitivo-</title><path class="cls-1" d="M49.3,69.2" transform="translate(0 0)"/><path class="cls-2" d="M22.9,77.7" transform="translate(0 0)"/><path class="cls-3" d="M52.8,69.9" transform="translate(0 0)"/><path class="cls-4" d="M49.1,67.8" transform="translate(0 0)"/><path class="cls-3" d="M60.6,74.7" transform="translate(0 0)"/><path class="cls-3" d="M53.8,73" transform="translate(0 0)"/><path class="cls-3" d="M2.5,113.7" transform="translate(0 0)"/><path class="cls-3" d="M54.3,74.5" transform="translate(0 0)"/><path class="cls-3" d="M56.3,73.4" transform="translate(0 0)"/><path class="cls-3" d="M53,72.7" transform="translate(0 0)"/><path class="cls-3" d="M100.4,44.3" transform="translate(0 0)"/><path class="cls-4" d="M49.5,54.9" transform="translate(0 0)"/><path class="cls-5" d="M80.5,35" transform="translate(0 0)"/><path class="cls-6" d="M15.1,67.9" transform="translate(0 0)"/><path class="cls-7" d="M30,38.3" transform="translate(0 0)"/><path class="cls-5" d="M4.2,70.8S-.1,69.6,0,73.2H74.7s.4-3-3.8-2.6Z" transform="translate(0 0)"/><path class="cls-5" d="M5.8,71.7V25.3H41.5V71.9l2.6-.1V24.6s.4-2-1.5-2.1H4.6a1.79,1.79,0,0,0-1.8,1.8v.4L2.7,72Z" transform="translate(0 0)"/><path class="cls-5" d="M33.4,23H30.7V2.4a1.77,1.77,0,0,1,1-2.3h0a3.4,3.4,0,0,1,1-.1H70.1S72-.1,71.9,1.6L72,71.5l-3.1.1L69,2.8l-35.6.1Z" transform="translate(0 0)"/><polygon class="cls-5" points="3.8 24.1 3.8 71.9 35.9 71.7 35.1 24.1 3.8 24.1"/><polyline class="cls-5" points="31.67 1.4 69.67 1.4 69.67 72.1 31.67 72"/><rect class="cls-8" x="14.3" y="62.1" width="11.2" height="11.3"/><rect class="cls-8" x="8.6" y="48" width="8.7" height="6.6"/><rect class="cls-8" x="21.1" y="48" width="8.7" height="6.6"/><path class="cls-3" d="M51,50.5h-6.8a.6.6,0,0,0-.8.4.45.45,0,0,0,0,.5l1.8,3.2H50l1.6-2.8S52.29,50.5,51,50.5Z" transform="translate(0 0)"/><path class="cls-3" d="M45.3,55.4h4.6A11.85,11.85,0,0,1,52,57.2a19.12,19.12,0,0,1,2.59,3c.29.4.57.9.86,1.3a10.2,10.2,0,0,1,1,2.9,14.4,14.4,0,0,1,.48,2.8v1.1a5,5,0,0,1-.48,1.7,2,2,0,0,1-.48,1,2.7,2.7,0,0,1-1.25,1.1,4.12,4.12,0,0,1-1.82.5H42.52a4.32,4.32,0,0,1-2.21-.6,4.8,4.8,0,0,1-2.11-3.8c0-2.6,1.82-10.1,7.1-12.8Z" transform="translate(0 0)"/><rect class="cls-8" x="8.6" y="39" width="8.7" height="6.6"/><rect class="cls-8" x="21.1" y="39" width="8.7" height="6.6"/><rect class="cls-8" x="21.3" y="30" width="8.7" height="6.6"/><rect class="cls-8" x="8.6" y="30" width="8.7" height="6.6"/><rect class="cls-8" x="39.6" y="7.2" width="8.7" height="9.7"/><rect class="cls-8" x="54.3" y="7.2" width="8.7" height="9.7"/><rect class="cls-8" x="54.3" y="35.4" width="8.7" height="9.8"/><rect class="cls-8" x="39.6" y="35.4" width="8.7" height="9.8"/><rect class="cls-8" x="54.3" y="21.3" width="8.7" height="9.8"/><rect class="cls-8" x="39.6" y="21.3" width="8.7" height="9.8"/><path class="cls-9" d="M77,59.4" transform="translate(0 0)"/><path class="cls-10" d="M520.39,86.79" transform="translate(0 0)"/><path class="cls-11" d="M334.29,60.43" transform="translate(0 0)"/><path class="cls-12" d="M469.93,165" transform="translate(0 0)"/><path class="cls-5" d="M46.79,58.56v1.2a3.38,3.38,0,0,0-1.48.51,3.5,3.5,0,0,0-1.18,1.25A2.76,2.76,0,0,0,44,63.59a2.87,2.87,0,0,0,2.78,1.76v2.21c-.23-.06-.47-.14-.72-.23a9.33,9.33,0,0,1-1.37-.61,1,1,0,0,0-.79.11,1.1,1.1,0,0,0-.35.93c0,1.4,3.23,1.7,3.23,1.7v1.1h1.47v-1.1A3.37,3.37,0,0,0,51,68.19a3,3,0,0,0,.38-2.42,3.06,3.06,0,0,0-3.1-2V61.61a6.66,6.66,0,0,1,1.63.67s1.58.34,1.22-1.33c0,0-.62-1-2.83-1.29l0-1.1Z" transform="translate(0 0)"/><path class="cls-8" d="M46.94,61.63v2s-1.13,0-1-1A1,1,0,0,1,46.94,61.63Z" transform="translate(0 0)"/><path class="cls-8" d="M48.55,67.65V65.43s1.35,0,1.15,1.11A1.18,1.18,0,0,1,48.55,67.65Z" transform="translate(0 0)"/><path class="cls-13" d="M44.05,62.42" transform="translate(0 0)"/><path class="cls-14" d="M52.61,68.8" transform="translate(0 0)"/><path class="cls-15" d="M48.89,66.35" transform="translate(0 0)"/><path class="cls-9" d="M56.73,63.72" transform="translate(0 0)"/><rect class="cls-5" x="43.44" y="54.43" width="7.23" height="0.94"/><path class="cls-9" d="M51.43,57.09S58.77,63.34,55.17,72C55.17,72,56.4,63.82,51.43,57.09Z" transform="translate(0 0)"/></svg>